<mxfile host="app.diagrams.net" modified="2023-04-26T08:39:06.084Z" agent="Mozilla/5.0 (Windows NT 10.0; Win64; x64) AppleWebKit/537.36 (KHTML, like Gecko) Chrome/112.0.0.0 Safari/537.36" etag="dYRHG8l9ku81JZ6R4lf0" version="21.2.2" type="github">
  <diagram name="第 1 页" id="0LmTYaJ52Cj23A4goQgC">
    <mxGraphModel dx="954" dy="576" grid="1" gridSize="10" guides="1" tooltips="1" connect="1" arrows="1" fold="1" page="1" pageScale="1" pageWidth="827" pageHeight="1169" math="0" shadow="0">
      <root>
        <mxCell id="0" />
        <mxCell id="1" parent="0" />
        <mxCell id="AxQPOroECDLtiGtt9FNL-1" value="BIO" style="text;html=1;align=center;verticalAlign=middle;resizable=0;points=[];autosize=1;strokeColor=none;fillColor=none;" vertex="1" parent="1">
          <mxGeometry x="140" y="100" width="40" height="30" as="geometry" />
        </mxCell>
        <mxCell id="AxQPOroECDLtiGtt9FNL-9" value="多线程BIO" style="text;html=1;align=center;verticalAlign=middle;resizable=0;points=[];autosize=1;strokeColor=none;fillColor=none;" vertex="1" parent="1">
          <mxGeometry x="500" y="90" width="80" height="30" as="geometry" />
        </mxCell>
        <mxCell id="AxQPOroECDLtiGtt9FNL-18" value="" style="edgeStyle=orthogonalEdgeStyle;rounded=0;orthogonalLoop=1;jettySize=auto;html=1;" edge="1" parent="1" source="AxQPOroECDLtiGtt9FNL-15" target="AxQPOroECDLtiGtt9FNL-17">
          <mxGeometry relative="1" as="geometry" />
        </mxCell>
        <mxCell id="AxQPOroECDLtiGtt9FNL-15" value="accept" style="rounded=0;whiteSpace=wrap;html=1;" vertex="1" parent="1">
          <mxGeometry x="100" y="160" width="120" height="60" as="geometry" />
        </mxCell>
        <mxCell id="AxQPOroECDLtiGtt9FNL-26" style="edgeStyle=orthogonalEdgeStyle;rounded=0;orthogonalLoop=1;jettySize=auto;html=1;entryX=0.5;entryY=0;entryDx=0;entryDy=0;" edge="1" parent="1" source="AxQPOroECDLtiGtt9FNL-17" target="AxQPOroECDLtiGtt9FNL-15">
          <mxGeometry relative="1" as="geometry">
            <mxPoint x="140" y="140" as="targetPoint" />
            <Array as="points">
              <mxPoint x="160" y="360" />
              <mxPoint x="60" y="360" />
              <mxPoint x="60" y="140" />
              <mxPoint x="160" y="140" />
            </Array>
          </mxGeometry>
        </mxCell>
        <mxCell id="AxQPOroECDLtiGtt9FNL-17" value="recv" style="rounded=0;whiteSpace=wrap;html=1;" vertex="1" parent="1">
          <mxGeometry x="100" y="280" width="120" height="60" as="geometry" />
        </mxCell>
        <mxCell id="AxQPOroECDLtiGtt9FNL-23" value="" style="rounded=0;orthogonalLoop=1;jettySize=auto;html=1;entryX=0.5;entryY=0;entryDx=0;entryDy=0;exitX=0.5;exitY=1;exitDx=0;exitDy=0;" edge="1" parent="1" source="AxQPOroECDLtiGtt9FNL-24" target="AxQPOroECDLtiGtt9FNL-25">
          <mxGeometry relative="1" as="geometry" />
        </mxCell>
        <mxCell id="AxQPOroECDLtiGtt9FNL-35" value="new Thread" style="edgeLabel;html=1;align=center;verticalAlign=middle;resizable=0;points=[];" vertex="1" connectable="0" parent="AxQPOroECDLtiGtt9FNL-23">
          <mxGeometry x="-0.2444" y="-2" relative="1" as="geometry">
            <mxPoint x="-12" y="23" as="offset" />
          </mxGeometry>
        </mxCell>
        <mxCell id="AxQPOroECDLtiGtt9FNL-29" style="edgeStyle=orthogonalEdgeStyle;rounded=0;orthogonalLoop=1;jettySize=auto;html=1;exitX=0.25;exitY=1;exitDx=0;exitDy=0;entryX=0.25;entryY=0;entryDx=0;entryDy=0;" edge="1" parent="1" source="AxQPOroECDLtiGtt9FNL-24" target="AxQPOroECDLtiGtt9FNL-24">
          <mxGeometry relative="1" as="geometry">
            <mxPoint x="520" y="140" as="targetPoint" />
            <Array as="points">
              <mxPoint x="520" y="230" />
              <mxPoint x="470" y="230" />
              <mxPoint x="470" y="130" />
              <mxPoint x="520" y="130" />
            </Array>
          </mxGeometry>
        </mxCell>
        <mxCell id="AxQPOroECDLtiGtt9FNL-24" value="accept" style="rounded=0;whiteSpace=wrap;html=1;" vertex="1" parent="1">
          <mxGeometry x="490" y="150" width="120" height="60" as="geometry" />
        </mxCell>
        <mxCell id="AxQPOroECDLtiGtt9FNL-25" value="recv" style="rounded=0;whiteSpace=wrap;html=1;" vertex="1" parent="1">
          <mxGeometry x="430" y="310" width="120" height="60" as="geometry" />
        </mxCell>
        <mxCell id="AxQPOroECDLtiGtt9FNL-32" style="rounded=0;orthogonalLoop=1;jettySize=auto;html=1;exitX=0.5;exitY=1;exitDx=0;exitDy=0;entryX=0.5;entryY=0;entryDx=0;entryDy=0;" edge="1" parent="1" source="AxQPOroECDLtiGtt9FNL-24" target="AxQPOroECDLtiGtt9FNL-30">
          <mxGeometry relative="1" as="geometry" />
        </mxCell>
        <mxCell id="AxQPOroECDLtiGtt9FNL-34" value="new Thread" style="edgeLabel;html=1;align=center;verticalAlign=middle;resizable=0;points=[];" vertex="1" connectable="0" parent="AxQPOroECDLtiGtt9FNL-32">
          <mxGeometry x="-0.1444" y="-1" relative="1" as="geometry">
            <mxPoint x="21" y="17" as="offset" />
          </mxGeometry>
        </mxCell>
        <mxCell id="AxQPOroECDLtiGtt9FNL-30" value="recv" style="rounded=0;whiteSpace=wrap;html=1;" vertex="1" parent="1">
          <mxGeometry x="560" y="310" width="120" height="60" as="geometry" />
        </mxCell>
        <mxCell id="AxQPOroECDLtiGtt9FNL-36" value="NIO" style="text;html=1;align=center;verticalAlign=middle;resizable=0;points=[];autosize=1;strokeColor=none;fillColor=none;" vertex="1" parent="1">
          <mxGeometry x="120" y="450" width="40" height="30" as="geometry" />
        </mxCell>
        <mxCell id="AxQPOroECDLtiGtt9FNL-40" value="" style="edgeStyle=orthogonalEdgeStyle;rounded=0;orthogonalLoop=1;jettySize=auto;html=1;" edge="1" parent="1" source="AxQPOroECDLtiGtt9FNL-37" target="AxQPOroECDLtiGtt9FNL-39">
          <mxGeometry relative="1" as="geometry" />
        </mxCell>
        <mxCell id="AxQPOroECDLtiGtt9FNL-37" value="accept" style="rounded=0;whiteSpace=wrap;html=1;" vertex="1" parent="1">
          <mxGeometry x="80" y="510" width="120" height="60" as="geometry" />
        </mxCell>
        <mxCell id="AxQPOroECDLtiGtt9FNL-42" value="" style="edgeStyle=orthogonalEdgeStyle;rounded=0;orthogonalLoop=1;jettySize=auto;html=1;" edge="1" parent="1" source="AxQPOroECDLtiGtt9FNL-39" target="AxQPOroECDLtiGtt9FNL-41">
          <mxGeometry relative="1" as="geometry" />
        </mxCell>
        <mxCell id="AxQPOroECDLtiGtt9FNL-43" value="y" style="edgeLabel;html=1;align=center;verticalAlign=middle;resizable=0;points=[];" vertex="1" connectable="0" parent="AxQPOroECDLtiGtt9FNL-42">
          <mxGeometry x="-0.2222" y="1" relative="1" as="geometry">
            <mxPoint as="offset" />
          </mxGeometry>
        </mxCell>
        <mxCell id="AxQPOroECDLtiGtt9FNL-53" value="Y" style="edgeLabel;html=1;align=center;verticalAlign=middle;resizable=0;points=[];" vertex="1" connectable="0" parent="AxQPOroECDLtiGtt9FNL-42">
          <mxGeometry x="-0.2444" y="-3" relative="1" as="geometry">
            <mxPoint as="offset" />
          </mxGeometry>
        </mxCell>
        <mxCell id="AxQPOroECDLtiGtt9FNL-51" style="edgeStyle=orthogonalEdgeStyle;rounded=0;orthogonalLoop=1;jettySize=auto;html=1;exitX=0;exitY=0.5;exitDx=0;exitDy=0;" edge="1" parent="1" source="AxQPOroECDLtiGtt9FNL-39">
          <mxGeometry relative="1" as="geometry">
            <mxPoint x="20" y="680" as="targetPoint" />
          </mxGeometry>
        </mxCell>
        <mxCell id="AxQPOroECDLtiGtt9FNL-52" value="N" style="edgeLabel;html=1;align=center;verticalAlign=middle;resizable=0;points=[];" vertex="1" connectable="0" parent="AxQPOroECDLtiGtt9FNL-51">
          <mxGeometry x="-0.2547" y="2" relative="1" as="geometry">
            <mxPoint as="offset" />
          </mxGeometry>
        </mxCell>
        <mxCell id="AxQPOroECDLtiGtt9FNL-39" value="ready?" style="rhombus;whiteSpace=wrap;html=1;rounded=0;" vertex="1" parent="1">
          <mxGeometry x="100" y="640" width="80" height="80" as="geometry" />
        </mxCell>
        <mxCell id="AxQPOroECDLtiGtt9FNL-45" value="" style="edgeStyle=orthogonalEdgeStyle;rounded=0;orthogonalLoop=1;jettySize=auto;html=1;" edge="1" parent="1" source="AxQPOroECDLtiGtt9FNL-41" target="AxQPOroECDLtiGtt9FNL-44">
          <mxGeometry relative="1" as="geometry" />
        </mxCell>
        <mxCell id="AxQPOroECDLtiGtt9FNL-41" value="recv" style="whiteSpace=wrap;html=1;rounded=0;" vertex="1" parent="1">
          <mxGeometry x="80" y="810" width="120" height="60" as="geometry" />
        </mxCell>
        <mxCell id="AxQPOroECDLtiGtt9FNL-47" style="edgeStyle=orthogonalEdgeStyle;rounded=0;orthogonalLoop=1;jettySize=auto;html=1;exitX=0.5;exitY=1;exitDx=0;exitDy=0;entryX=0.5;entryY=0;entryDx=0;entryDy=0;" edge="1" parent="1" source="AxQPOroECDLtiGtt9FNL-44" target="AxQPOroECDLtiGtt9FNL-37">
          <mxGeometry relative="1" as="geometry">
            <Array as="points">
              <mxPoint x="140" y="1040" />
              <mxPoint x="20" y="1040" />
              <mxPoint x="20" y="490" />
              <mxPoint x="140" y="490" />
            </Array>
          </mxGeometry>
        </mxCell>
        <mxCell id="AxQPOroECDLtiGtt9FNL-49" value="y" style="edgeLabel;html=1;align=center;verticalAlign=middle;resizable=0;points=[];" vertex="1" connectable="0" parent="AxQPOroECDLtiGtt9FNL-47">
          <mxGeometry x="-0.8506" y="-1" relative="1" as="geometry">
            <mxPoint as="offset" />
          </mxGeometry>
        </mxCell>
        <mxCell id="AxQPOroECDLtiGtt9FNL-54" value="Y" style="edgeLabel;html=1;align=center;verticalAlign=middle;resizable=0;points=[];" vertex="1" connectable="0" parent="AxQPOroECDLtiGtt9FNL-47">
          <mxGeometry x="-0.8458" y="-2" relative="1" as="geometry">
            <mxPoint as="offset" />
          </mxGeometry>
        </mxCell>
        <mxCell id="AxQPOroECDLtiGtt9FNL-50" style="edgeStyle=orthogonalEdgeStyle;rounded=0;orthogonalLoop=1;jettySize=auto;html=1;exitX=0;exitY=0.5;exitDx=0;exitDy=0;" edge="1" parent="1" source="AxQPOroECDLtiGtt9FNL-44">
          <mxGeometry relative="1" as="geometry">
            <mxPoint x="20" y="980" as="targetPoint" />
          </mxGeometry>
        </mxCell>
        <mxCell id="AxQPOroECDLtiGtt9FNL-55" value="N" style="edgeLabel;html=1;align=center;verticalAlign=middle;resizable=0;points=[];" vertex="1" connectable="0" parent="AxQPOroECDLtiGtt9FNL-50">
          <mxGeometry x="-0.2547" y="1" relative="1" as="geometry">
            <mxPoint as="offset" />
          </mxGeometry>
        </mxCell>
        <mxCell id="AxQPOroECDLtiGtt9FNL-44" value="done?" style="rhombus;whiteSpace=wrap;html=1;rounded=0;" vertex="1" parent="1">
          <mxGeometry x="100" y="940" width="80" height="80" as="geometry" />
        </mxCell>
      </root>
    </mxGraphModel>
  </diagram>
</mxfile>
